<svg xmlns="http://www.w3.org/2000/svg" version="1.1" xmlns:xlink="http://www.w3.org/1999/xlink" width="1131" height="1304"><svg width="1131" height="1304" viewBox="0 0 1131 1304" fill="none" xmlns="http://www.w3.org/2000/svg">
<path d="M674.093 1205.15L639.533 1213.95C582.109 1228.59 522.216 1230.76 463.883 1220.33L403.821 1202.55L358.906 1186.55C336.038 1178.41 313.843 1168.48 292.524 1156.87C262.743 1140.65 234.826 1121.21 209.272 1098.91L186.938 1079.42L172.899 1065.05C154.612 1046.32 138.661 1025.45 125.393 1002.88C117.171 988.901 110.01 974.322 103.97 959.268L101.937 954.201C93.1595 932.322 86.3487 909.705 81.5856 886.618L73.6918 848.356C69.8349 791.662 72.9456 734.71 82.9541 678.773L87.3773 654.052C94.6596 613.353 106.906 573.7 123.842 535.981L133.388 514.721L167.216 443.478L193.017 377.826L221.254 298.556L244.618 246.521L267.124 209.332C285.259 179.368 308.059 152.489 334.666 129.712L341.833 123.577C359.979 108.042 380.174 95.0738 401.85 85.0361C430.9 71.5835 462.179 63.5945 494.123 61.4684L496.44 61.3142L503.275 61.3142C530.889 61.3142 558.449 63.7603 585.631 68.6239L588.735 69.1795C627.205 76.0627 664.123 89.8089 697.727 109.762L701.955 112.914C732.005 135.321 758.246 162.425 779.668 193.183C791.625 210.352 802.013 228.561 810.706 247.591L843.082 318.468L865.623 370.196C877.148 396.645 890.574 422.224 905.796 446.732C923.255 474.845 938.349 504.36 950.921 534.973L966.292 572.4L996.898 676.252L1007.51 734.033C1014.62 772.698 1014.71 812.327 1007.79 851.026C1004.22 870.979 998.804 890.558 991.618 909.511L976.122 950.383C967.066 974.267 955.532 997.135 941.709 1018.61C923.219 1047.34 900.793 1073.34 875.084 1095.84L864.785 1104.86C831.012 1134.42 793.054 1158.94 752.228 1177.59C727.071 1189.08 700.895 1198.31 674.093 1205.15Z" fill="#9BC069" stroke="#198849" stroke-width="27.6681"></path>
<path d="M606.981 1172.95L589.56 1175.49C566.893 1178.79 543.841 1178.42 521.292 1174.38L480.439 1167.07L475.306 1166.16C438.015 1159.48 401.684 1148.26 367.124 1132.74L309.499 1101.35C271.491 1080.65 238.162 1052.33 211.593 1018.16L210.051 1016.18C199.865 1003.08 190.692 989.222 182.61 974.729L178.878 968.036C157.665 929.994 142.393 888.932 133.593 846.274L131.819 837.675L129.744 814.477C126.458 777.738 128.085 740.725 134.582 704.416L135.369 700.014C138.871 680.443 143.984 661.195 150.655 642.466L151.246 640.807C162.929 608.012 179.449 577.147 200.259 549.237C210.138 535.989 219.063 522.056 226.969 507.544L246.487 471.715L251.861 459.746C263.809 433.136 272.449 405.161 277.586 376.448L277.982 374.24C281.488 354.641 286.751 335.399 293.707 316.744L295.758 311.243C305.385 285.426 318.631 261.109 335.101 239.021L338.522 234.433C350.461 218.421 364.319 203.934 379.785 191.295C397.1 177.147 416.275 165.442 436.773 156.51L447.271 151.935C465.323 144.069 484.343 138.644 503.828 135.805L510.088 134.893C529.505 132.064 549.251 132.383 568.567 135.839C594.22 140.429 618.593 150.458 640.048 165.253L644.946 168.63C665.679 182.926 683.672 200.836 698.065 221.502L701.018 225.741C714.284 244.79 724.699 265.673 731.932 287.73L746.052 330.785C750.575 344.577 753.928 358.727 756.074 373.082C762.713 417.471 780.8 459.365 808.554 494.638L828.179 519.58C860.559 559.194 888.815 602.007 912.508 647.354L916.41 654.824L932.533 697.224C940.873 719.157 946.788 741.937 950.171 765.157L951.214 772.311C955.508 801.779 955.023 831.747 949.778 861.06C944.533 890.373 934.596 918.65 920.351 944.8L914.832 954.931C904.966 973.042 893.511 990.24 880.6 1006.32L876.229 1011.77C855.975 1037 832.916 1059.85 807.498 1079.86L780.314 1101.27L748.345 1120.51C727.699 1132.94 705.986 1143.5 683.463 1152.06L674.915 1155.31C652.982 1163.65 630.201 1169.57 606.981 1172.95Z" fill="#D9D965"></path>
<path d="M676.242 1093.55L643.289 1108.53C628.434 1115.28 612.861 1120.48 596.932 1124.02C571.673 1129.63 545.571 1131.06 519.854 1128.2L514.662 1127.62C502.533 1126.28 490.527 1123.99 478.753 1120.78L442.82 1110.98C427.879 1106.9 413.376 1101.36 399.524 1094.43L365.017 1077.18L355.541 1071.77C329.811 1057.06 307.091 1037.63 288.579 1014.49L276.826 999.798C266.479 986.864 257.527 972.873 250.12 958.058L248.619 955.057C238.653 935.125 231.57 913.877 227.584 891.952L219.76 848.919L217.263 837.684C209.796 804.082 209.796 769.251 217.263 735.649L219.76 724.413L238.965 671.6C244.591 656.127 251.827 641.287 260.553 627.326L282.013 592.99L316.598 530.737L354.886 470.57C361.615 459.997 367.021 448.637 370.985 436.747C376.195 421.116 383.891 406.428 393.777 393.247L414.336 365.834C418.343 360.492 422.723 355.442 427.444 350.721L437.144 341.021C457.395 320.769 484.862 309.392 513.502 309.392C525.108 309.392 536.639 311.264 547.65 314.934L556.386 317.846C580.648 325.933 602.693 339.558 620.777 357.641L622.878 359.743C639.859 376.724 653.214 396.976 662.132 419.273L665.441 427.544C672.637 445.536 682.172 462.502 693.799 478.004L702.295 489.333C712.591 503.06 724.358 515.62 737.386 526.787L766.204 551.488L805.219 590.503C825.16 610.444 841.352 633.808 853.021 659.481L869.959 696.745L878.315 724.599C886.506 751.9 889.495 780.497 887.128 808.902C884.922 835.376 878.098 861.259 866.965 885.38L851.101 919.752C845.24 932.452 838.256 944.605 830.235 956.064L810.918 983.66C799.599 999.83 786.29 1014.51 771.304 1027.35L745.453 1049.51L715.619 1070.82C703.258 1079.65 690.071 1087.26 676.242 1093.55Z" fill="#E4E782"></path>
<path d="M551.776 572.239C694.519 572.239 814.623 680.798 814.623 821.251C814.623 959.719 699.71 1042.82 550.224 1077.18C397.16 1076.4 275.096 961.177 275.096 821.251C275.096 770.761 305.185 708.384 356.068 658.173C406.678 608.233 475.983 572.239 551.776 572.239Z" fill="#E39564" stroke="#9F4F38" stroke-width="27.6681"></path>
<path d="M510.274 606.824L413.436 627.575L457.272 605.657C464.922 601.832 472.911 598.725 481.135 596.375L517.191 586.073L555.878 580.546C562.358 579.621 568.896 579.156 575.442 579.156H588.944C605.532 579.156 621.986 582.14 637.518 587.964L669.366 599.907L697.759 614.104C706.474 618.461 714.704 623.727 722.312 629.814L745.453 648.326L757.247 660.12C767.761 670.634 776.511 682.774 783.161 696.074L786.955 703.662L792.504 714.76C798.003 725.758 802.011 737.44 804.422 749.497L805.019 752.483C806.806 761.416 807.706 770.504 807.706 779.614V793.583V807.553C807.706 816.663 806.806 825.751 805.019 834.684L802.603 846.766C801.397 852.798 800.789 858.935 800.789 865.087V866.813C800.789 873.305 799.993 879.772 798.418 886.071C795.428 898.03 789.695 909.128 781.673 918.488L752.37 952.675L766.204 904.256L768.99 893.11C771.734 882.136 773.121 870.868 773.121 859.557V835.086V805.033C773.121 797.413 772.491 789.806 771.239 782.29L768.662 766.832C767.028 757.027 764.342 747.426 760.65 738.197L755.565 725.486C753.438 720.168 750.889 715.029 747.943 710.118L745.471 705.999C736.271 690.665 725.225 676.517 712.58 663.873C706.853 658.145 700.387 653.207 693.355 649.188L655.532 627.575L644.428 622.023C624.321 611.97 602.594 605.553 580.251 603.071C561.359 600.972 542.266 601.492 523.516 604.617L510.274 606.824Z" fill="#FCB88B"></path>
<path d="M551.776 572.239C694.519 572.239 814.623 680.798 814.623 821.251C814.623 959.719 699.71 1042.82 550.224 1077.18C397.16 1076.4 275.096 961.177 275.096 821.251C275.096 770.761 305.185 708.384 356.068 658.173C406.678 608.233 475.983 572.239 551.776 572.239Z" stroke="#9F4F38" stroke-width="27.6681"></path>
<path d="M329.243 789.608C327.653 779.087 324.155 769.838 316.599 772.833C307.544 776.42 306.63 784.644 302.765 793.584C294.187 813.419 302.765 848.92 302.765 848.92L305.518 858.558C312.873 884.3 323.575 908.966 337.35 931.924C337.35 931.924 351.899 955.237 365.018 966.509C385.393 984.016 409.832 996.677 434.188 1008.01C449.677 1015.22 459.103 1017.75 475.69 1021.85C491.643 1025.78 500.833 1027.22 517.192 1028.76C538.707 1030.79 551.075 1031.36 572.528 1028.76C594.641 1026.08 627.864 1014.93 627.864 1014.93C655.467 1005.73 684.094 995.855 704.159 974.784C706.728 972.086 709.029 969.306 710.868 966.509C718.863 954.356 728.271 935.492 724.702 931.924C721.134 928.355 703.951 938.841 690.117 945.758C676.283 952.675 669.366 959.592 641.698 966.509C614.03 973.426 612.79 977.879 593.279 980.343C577.199 982.374 579.445 980.343 551.777 980.343C532.868 980.343 524.873 982.368 503.358 980.343C486.999 978.803 470.877 977.421 454.939 973.426C432.552 967.814 420.73 965.861 399.603 952.675C389.115 946.129 378.085 935.433 369.206 925.756C356.635 912.056 348.187 895.265 342.307 877.626C339.009 867.731 336.608 857.56 335.133 847.235L333.938 838.87C331.606 822.548 331.708 805.91 329.243 789.608Z" fill="#D38357"></path>
<path d="M302.764 440.816L306.752 428.852C308.696 423.02 311.409 417.473 314.819 412.357L317.416 408.462C321.432 402.438 326.735 397.381 332.943 393.657L338.192 390.507C350.446 383.155 365.754 383.155 378.008 390.507V390.507C387.356 396.116 393.904 405.408 396.042 416.098L399.602 433.899" stroke="#60211B" stroke-width="20.751" stroke-linecap="round"></path>
<path d="M634.781 440.816L639.31 422.699C640.89 416.378 643.545 410.377 647.159 404.956L649.155 401.961C653.334 395.693 659.076 390.625 665.814 387.256L668.099 386.113C677.704 381.31 688.905 380.844 698.876 384.833V384.833C710.672 389.551 719.287 399.909 721.779 412.367L724.702 426.982" stroke="#60211B" stroke-width="20.751" stroke-linecap="round"></path>
<path d="M558.693 447.733L554.239 463.322C552.614 469.012 549.873 474.322 546.176 478.943L544.822 480.635C540.332 486.248 534.314 490.444 527.494 492.718V492.718C520.765 494.961 513.536 495.238 506.655 493.518L504.724 493.035C494.891 490.577 486.204 484.809 480.122 476.7L468.772 461.567" stroke="#60211B" stroke-width="20.751" stroke-linecap="round"></path>
<path d="M468.422 681.081L510.712 638.791C512.009 637.494 513.768 636.765 515.603 636.765H564.892C566.911 636.765 568.83 637.647 570.144 639.181L606.444 681.53C608.326 683.727 608.643 686.862 607.239 689.391L576.448 744.814C575.518 746.488 573.936 747.701 572.079 748.165L548.149 754.148C547.6 754.285 547.037 754.354 546.471 754.354H516.339C514.082 754.354 511.967 753.253 510.672 751.404L467.646 689.938C465.722 687.189 466.049 683.454 468.422 681.081Z" fill="#2C97C9"></path>
<path d="M492.197 1083.01L512.332 760.84C512.56 757.194 515.583 754.354 519.236 754.354H546.471C547.036 754.354 547.6 754.285 548.149 754.148L567.55 749.297C571.529 748.303 575.495 750.969 576.075 755.03L622.851 1082.46C623.197 1084.88 622.236 1087.31 620.324 1088.84L558.795 1138.06C556.164 1140.17 552.398 1140.07 549.879 1137.83L494.505 1088.61C492.915 1087.2 492.064 1085.13 492.197 1083.01Z" fill="#2C97C9"></path>
<path d="M671.829 595.26C645.149 600.596 593.772 614.164 571.678 620.088C566.774 621.403 564.965 627.371 568.27 631.227L640.172 715.112C642.448 717.768 646.343 718.31 649.258 716.376C698.136 683.931 772.56 636.288 785.92 622.928C795.376 613.472 886.804 542.101 943.726 497.873C950.183 492.856 944.118 482.57 936.63 485.857C853.193 522.48 696.971 590.231 671.829 595.26Z" fill="white"></path>
<path d="M402.065 609.097C428.044 614.293 477.44 623.392 500.415 627.598C505.769 628.579 507.948 635.073 504.269 639.086L440.655 708.484C438.35 710.998 434.56 711.454 431.701 709.594C383.908 678.507 325.513 651.015 312.144 637.647C303.286 628.788 196.646 563.13 121.078 517.043C113.799 512.604 119.516 501.137 127.427 504.313C225.128 543.532 378.756 604.436 402.065 609.097Z" fill="white"></path>
<path d="M514.185 750.177C514.185 750.177 521.205 750.331 525.699 750.177C533.88 749.897 538.426 749.052 546.563 748.159C553.54 747.393 564.407 746 564.407 746" stroke="#2C8CB9" stroke-width="6.91701" stroke-linecap="round"></path>
<path d="M589.228 665.998L579.226 653.997L567.233 642.62L575.978 657.572C576.144 657.856 576.33 658.127 576.534 658.384L586.181 670.521C586.434 670.839 586.658 671.178 586.851 671.536L593.228 683.333C593.228 683.333 595.301 687.141 594.895 689.667C594.505 692.092 592.998 693.008 591.561 695C588.975 698.587 586.628 699.858 583.894 703.334C581.929 705.832 581.453 708.199 580.683 710.243C580.145 711.672 579.648 716.194 579.397 718.789C579.284 719.956 579.81 721.086 580.764 721.767C582.415 722.946 584.728 722.387 585.658 720.584L589.228 713.668L594.895 703.334L602.218 691.325C602.879 690.24 603.229 688.994 603.229 687.724V685.875C603.229 684.234 602.645 682.646 601.582 681.396L597.562 676.666L589.228 665.998Z" fill="#2C8CB9"></path>
<path d="M592.918 1095.91L576.51 1109.47C576.408 1109.55 576.314 1109.64 576.227 1109.74C574.344 1111.89 577.064 1114.97 579.432 1113.37L584.998 1109.59L605.503 1094.65C605.991 1094.29 606.431 1093.87 606.81 1093.4L612.956 1085.8C613.513 1085.11 613.932 1084.32 614.19 1083.47L617.265 1073.41C617.589 1072.35 617.655 1071.23 617.455 1070.14C616.738 1066.21 614.914 1056.12 613.799 1049.11C611.859 1036.92 611.498 1029.97 609.479 1017.79C607.535 1006.07 606.555 999.451 603.718 987.91C602.432 982.677 601.399 979.824 600.118 974.59C596.199 958.573 593.236 933.417 592.942 930.878C592.925 930.727 592.898 930.596 592.858 930.45C591.959 927.191 587.158 927.841 587.158 931.222V938.949C587.158 938.949 587.788 958.512 588.958 970.99C590.844 991.104 592.567 1002.37 596.878 1022.11C599.2 1032.74 601.691 1038.42 603.718 1049.11C604.938 1055.54 606.618 1059.14 606.238 1065.67C605.964 1070.41 604.944 1072.97 603.718 1077.55C602.876 1080.7 601.408 1085.02 600.633 1087.25C600.297 1088.22 599.744 1089.09 599.022 1089.81L592.918 1095.91Z" fill="#2C8CB9"></path>
</svg><style>@media (prefers-color-scheme: light) { :root { filter: none; } }
@media (prefers-color-scheme: dark) { :root { filter: none; } }
</style></svg>